<svg width="40px" height="40px" fill="none" viewBox="0 0 40 40" xmlns="http://www.w3.org/2000/svg"><path fill-rule="evenodd" clip-rule="evenodd" d="M6 17.5C6 11.1487 11.1487 6 17.5 6C23.8513 6 29 11.1487 29 17.5C29 23.8513 23.8513 29 17.5 29C11.1487 29 6 23.8513 6 17.5ZM17.5 4C10.0442 4 4 10.0442 4 17.5C4 24.9558 10.0442 31 17.5 31C20.868 31 23.9479 29.7667 26.3128 27.727L34.2929 35.7071L35.7071 34.2929L27.727 26.3128C29.7667 23.9479 31 20.868 31 17.5C31 10.0442 24.9558 4 17.5 4Z" fill="black"></path></svg>